<?xml version="1.0" standalone="no"?>
<!DOCTYPE svg PUBLIC "-//W3C//DTD SVG 20010904//EN"
 "http://www.w3.org/TR/2001/REC-SVG-20010904/DTD/svg10.dtd">
<svg version="1.0" xmlns="http://www.w3.org/2000/svg"
 width="557.000000pt" height="483.000000pt" viewBox="0 0 557.000000 483.000000"
 preserveAspectRatio="xMidYMid meet">

<g transform="translate(0.000000,483.000000) scale(0.100000,-0.100000)"
fill="#000000" stroke="none">
<path d="M2755 4660 c-145 -22 -275 -90 -375 -197 -63 -66 -121 -160 -141
-226 -17 -53 -38 -192 -31 -197 4 -3 73 -4 153 -2 l147 4 6 45 c16 116 97 212
216 257 81 29 142 33 214 11 107 -33 182 -98 233 -205 23 -47 27 -68 26 -145
0 -69 -5 -101 -21 -137 l-21 -46 29 -45 c15 -24 39 -64 53 -89 50 -90 42 -85
136 -90 148 -9 269 -85 328 -207 24 -49 28 -68 28 -156 0 -91 -3 -106 -29
-160 -30 -61 -98 -135 -146 -160 -122 -63 -260 -60 -368 9 -51 33 -84 71 -193
221 -51 72 -96 132 -99 135 -3 3 -34 44 -68 92 -35 48 -68 90 -74 94 -6 4 -17
-1 -24 -11 -7 -9 -32 -38 -56 -64 -24 -25 -62 -68 -86 -94 l-43 -48 23 -30
c56 -76 129 -175 198 -271 144 -200 200 -254 325 -314 100 -48 165 -62 287
-62 121 -1 196 18 306 73 233 118 387 409 351 660 -22 160 -80 283 -184 390
-87 89 -189 151 -296 179 l-54 13 3 94 c8 230 -85 435 -252 554 -157 111 -320
152 -501 125z"/>
<path d="M3575 4627 c-89 -89 -31 -227 96 -227 44 0 53 4 89 40 36 36 40 45
40 90 0 43 -4 54 -38 90 -37 38 -42 40 -96 40 -52 0 -61 -3 -91 -33z m167 -16
c29 -26 33 -35 33 -81 0 -46 -4 -55 -33 -81 -26 -23 -42 -29 -78 -29 -38 0
-51 5 -74 30 -35 37 -44 73 -30 116 26 77 120 100 182 45z"/>
<path d="M3610 4535 c0 -60 3 -75 15 -75 10 0 15 10 15 30 0 20 5 30 16 30 8
0 20 -13 25 -30 6 -16 17 -30 25 -30 17 0 17 2 2 35 -9 19 -9 28 0 37 18 18
14 56 -7 68 -11 5 -36 10 -55 10 l-36 0 0 -75z m78 28 c3 -19 -1 -23 -22 -23
-21 0 -26 5 -26 26 0 21 4 25 23 22 14 -2 23 -11 25 -25z"/>
<path d="M1989 3881 c-243 -62 -422 -237 -490 -476 -9 -32 -14 -97 -14 -180 0
-117 3 -138 28 -205 40 -110 83 -175 169 -262 87 -87 193 -146 312 -173 70
-16 238 -19 286 -5 14 4 45 14 70 21 59 18 143 62 202 106 l47 36 -101 109
c-56 59 -103 108 -105 108 -2 0 -22 -13 -44 -30 -83 -60 -226 -78 -327 -41
-92 34 -163 99 -209 191 -25 50 -28 65 -27 155 1 118 18 164 90 244 88 98 241
144 356 106 59 -19 128 -70 154 -114 13 -22 20 -26 28 -18 6 7 45 50 86 97 41
47 83 93 92 104 16 18 16 20 -8 49 -135 160 -380 234 -595 178z"/>
<path d="M570 1821 l0 -461 75 0 75 0 0 395 0 395 205 0 205 0 0 -395 0 -395
70 0 70 0 0 395 0 395 105 0 c58 0 126 -6 152 -12 59 -16 126 -77 144 -133 9
-28 14 -133 16 -342 l4 -303 70 0 70 0 -3 328 c-3 310 -5 330 -26 383 -39 99
-104 156 -217 190 -28 9 -183 14 -527 16 l-488 5 0 -461z"/>
<path d="M2020 1982 c0 -168 5 -324 11 -358 13 -76 62 -158 116 -195 87 -60
100 -62 441 -67 l312 -4 0 461 0 461 -75 0 -75 0 0 -396 0 -396 -222 4 c-234
3 -241 4 -294 53 -64 59 -74 122 -74 454 l0 281 -70 0 -70 0 0 -298z"/>
<path d="M3090 1916 c0 -334 2 -368 19 -408 24 -55 57 -90 112 -120 43 -23 50
-23 382 -26 l337 -3 0 65 0 66 -301 0 c-339 0 -353 2 -386 68 -16 33 -18 71
-21 380 l-3 342 -69 0 -70 0 0 -364z"/>
<path d="M3776 2258 c-3 -13 -6 -42 -6 -65 l0 -43 190 0 190 0 0 -395 0 -395
73 0 72 0 0 393 0 392 188 3 187 2 0 65 0 65 -444 0 -444 0 -6 -22z"/>
<path d="M4800 2140 l0 -141 75 83 75 82 0 58 0 58 -75 0 -75 0 0 -140z"/>
<path d="M4932 1964 c-8 -8 -41 -45 -73 -82 l-59 -66 0 -228 0 -228 75 0 75 0
0 310 c0 171 -1 310 -2 310 -2 -1 -9 -8 -16 -16z"/>
<path d="M399 1060 c-109 -19 -191 -77 -236 -168 l-28 -57 0 -215 0 -215 31
-60 c37 -71 101 -125 183 -152 50 -16 92 -18 366 -18 l310 0 0 117 1 116 -298
4 -298 3 -27 28 -28 27 0 150 0 150 28 27 27 28 299 3 298 3 0 120 0 119 -291
-1 c-160 -1 -312 -5 -337 -9z"/>
<path d="M1212 723 l3 -348 26 -56 c31 -65 72 -100 149 -126 49 -16 91 -18
395 -18 l340 0 3 103 3 102 -288 0 -288 0 -30 24 -30 24 -3 321 -3 321 -140 0
-140 0 3 -347z"/>
<path d="M2635 1064 c-108 -16 -214 -64 -279 -127 -241 -234 -145 -637 178
-736 117 -36 323 -36 414 1 121 48 219 132 266 229 93 191 32 422 -144 547
-80 56 -168 82 -294 87 -61 2 -124 1 -141 -1z m172 -208 c29 -8 66 -24 82 -36
101 -71 119 -257 36 -366 -76 -100 -294 -100 -370 1 -59 76 -72 194 -31 280
30 64 62 93 128 116 64 22 87 23 155 5z"/>
<path d="M3360 755 c0 -296 1 -317 21 -371 44 -117 141 -185 290 -203 46 -6
208 -11 361 -11 l278 0 0 450 0 450 -140 0 -140 0 0 -345 0 -345 -153 0 -154
0 -37 33 c-51 44 -55 70 -56 390 l0 267 -135 0 -135 0 0 -315z"/>
<path d="M4493 951 l0 -120 298 -3 299 -3 27 -28 28 -27 0 -150 0 -150 -28
-27 -27 -28 -298 -3 -298 -4 1 -116 0 -117 310 0 c274 0 316 2 366 18 82 27
146 81 183 152 l31 60 0 215 0 215 -28 57 c-34 69 -90 120 -166 150 -53 21
-74 22 -377 26 l-321 4 0 -121z"/>
</g>
</svg>
